<?xml version="1.0" encoding="UTF-8"?>
<svg version="1.1" xmlns="http://www.w3.org/2000/svg" width="400" height="464">
<path d="M0 0 C21.65607731 17.79390134 33.76914191 40.74054513 36.9921875 68.51171875 C37.4809795 75.29661719 37.48092609 82.01023102 36.75390625 88.7734375 C34.94862745 106.22554816 34.95791725 122.70344132 46.2421875 137.07421875 C47.00660156 138.05132812 47.77101563 139.0284375 48.55859375 140.03515625 C52.31248926 145.23358027 52.31248926 145.23358027 57.2421875 149.07421875 C57.2421875 149.73421875 57.2421875 150.39421875 57.2421875 151.07421875 C57.9021875 151.07421875 58.5621875 151.07421875 59.2421875 151.07421875 C60.97162633 152.69884311 62.60138663 154.36225061 64.2421875 156.07421875 C65.73946765 157.57693368 67.23968959 159.07672083 68.7421875 160.57421875 C71.90885417 163.74088542 75.07552083 166.90755208 78.2421875 170.07421875 C78.80035156 170.59757813 79.35851562 171.1209375 79.93359375 171.66015625 C86.44075378 177.89125495 91.83411647 184.89651094 97.2421875 192.07421875 C97.67853516 192.64978516 98.11488281 193.22535156 98.56445312 193.81835938 C113.50155345 213.65138332 124.71771716 236.11853849 131.2421875 260.07421875 C131.5825 261.30914062 131.9228125 262.5440625 132.2734375 263.81640625 C134.50895335 272.94476265 136.48125799 284.46999553 132.90625 293.41796875 C131.2421875 296.07421875 131.2421875 296.07421875 128.2421875 298.07421875 C121.81639199 297.53363595 117.96353794 293.28530939 113.95068359 288.55029297 C111.09026984 285.02509883 108.33462838 281.42021958 105.57958984 277.8125 C98.91175264 269.14601572 91.89803946 260.47609463 83.98046875 252.9140625 C82.2421875 251.07421875 82.2421875 251.07421875 82.2421875 249.07421875 C81.3759375 248.67203125 81.3759375 248.67203125 80.4921875 248.26171875 C78.20806702 247.05621072 76.28787219 245.64286352 74.2421875 244.07421875 C74.31147461 244.61771973 74.38076172 245.1612207 74.45214844 245.72119141 C75.35859024 253.62271877 75.48533386 261.50236364 75.4921875 269.44921875 C75.49286224 270.15597748 75.49353699 270.86273621 75.49423218 271.59091187 C75.47652781 283.31170058 74.74412626 294.60058101 72.2421875 306.07421875 C72.08121582 306.84411133 71.92024414 307.61400391 71.75439453 308.40722656 C64.99678624 339.81290276 48.44131645 364.86647747 26.1796875 387.38671875 C25.42856689 388.14742676 24.67744629 388.90813477 23.90356445 389.69189453 C23.1993335 390.39169434 22.49510254 391.09149414 21.76953125 391.8125 C21.13781006 392.44196533 20.50608887 393.07143066 19.85522461 393.7199707 C18.2421875 395.07421875 18.2421875 395.07421875 16.2421875 395.07421875 C16.2421875 395.73421875 16.2421875 396.39421875 16.2421875 397.07421875 C17.4384375 397.25984375 18.6346875 397.44546875 19.8671875 397.63671875 C31.91021654 400.36773636 43.83536501 407.36404139 50.984375 417.55859375 C52.29011781 420.17007938 52.674712 421.80348043 52.6796875 424.69921875 C52.69902344 425.45460938 52.71835937 426.21 52.73828125 426.98828125 C52.2421875 429.07421875 52.2421875 429.07421875 50.50732422 430.69287109 C47.87137219 432.30035294 46.5565581 432.39219719 43.50390625 432.26171875 C42.14942383 432.22691406 42.14942383 432.22691406 40.76757812 432.19140625 C38.88734978 432.11376434 37.00714107 432.03564538 35.12695312 431.95703125 C26.24467625 431.72976617 21.1585612 433.93977429 14.4296875 439.76953125 C10.37900829 442.18547206 6.60514158 442.40906796 2.078125 441.296875 C0.93601562 440.91402344 -0.20609375 440.53117187 -1.3828125 440.13671875 C-10.7226017 437.34626391 -20.15780638 437.80287054 -29.81689453 438.04711914 C-31.02845215 438.07410889 -32.24000977 438.10109863 -33.48828125 438.12890625 C-34.57520264 438.16483887 -35.66212402 438.20077148 -36.78198242 438.23779297 C-41.26460417 437.99139404 -43.87794068 436.97853146 -47.0078125 433.76171875 C-49.7869501 429.49375744 -49.94644476 427.24373877 -49.1328125 422.19921875 C-47.9134531 417.74516983 -45.60463212 414.67020143 -42.7578125 411.07421875 C-43.55960938 411.21859375 -44.36140625 411.36296875 -45.1875 411.51171875 C-59.8906455 413.9122323 -74.09542556 413.71439132 -88.7578125 411.07421875 C-88.12359375 411.8528125 -87.489375 412.63140625 -86.8359375 413.43359375 C-83.09008881 418.19335637 -82.53311212 421.98724845 -82.4921875 427.890625 C-82.80962555 430.5001525 -83.2250787 431.9204635 -84.7578125 434.07421875 C-90.274204 438.13225387 -96.18095327 437.29433777 -102.6953125 437.07421875 C-114.47301593 436.86432922 -124.74224505 437.64547272 -135.7578125 442.07421875 C-141.1306986 442.7601191 -143.48437275 441.23656417 -147.7578125 438.07421875 C-149.1451035 437.16521284 -150.54130133 436.26968007 -151.9453125 435.38671875 C-152.59886719 434.97035156 -153.25242187 434.55398438 -153.92578125 434.125 C-157.12788619 432.28839823 -159.64579967 431.97107626 -163.25 432.08203125 C-164.12011719 432.09878906 -164.99023438 432.11554688 -165.88671875 432.1328125 C-167.70984633 432.17689951 -169.53280027 432.22891706 -171.35546875 432.2890625 C-180.10179646 432.43117418 -180.10179646 432.43117418 -183.7578125 429.07421875 C-184.8394916 426.01046846 -184.46324912 423.21290054 -183.7578125 420.07421875 C-182.20280465 416.95251125 -180.15396862 414.59068397 -177.7578125 412.07421875 C-177.16226563 411.42710937 -176.56671875 410.78 -175.953125 410.11328125 C-169.03737873 403.30517305 -160.35925585 399.34037664 -151.7578125 395.07421875 C-152.47066406 394.50574219 -153.18351562 393.93726563 -153.91796875 393.3515625 C-184.55927471 368.64881382 -200.94747895 331.74190001 -205.7578125 293.07421875 C-205.85352539 292.30899902 -205.94923828 291.5437793 -206.04785156 290.75537109 C-206.79446389 284.14534567 -206.91152131 277.59684567 -206.8828125 270.94921875 C-206.88087891 269.86133057 -206.87894531 268.77344238 -206.87695312 267.65258789 C-206.83137948 259.09423692 -206.46959736 250.60292666 -205.7578125 242.07421875 C-206.19351563 242.59371094 -206.62921875 243.11320312 -207.078125 243.6484375 C-210.2338272 247.34375112 -213.3153572 250.53762056 -217.12109375 253.57421875 C-220.62313017 256.7837223 -223.44356361 260.6500443 -226.390625 264.36132812 C-229.00807371 267.64061744 -231.66917244 270.88465869 -234.3203125 274.13671875 C-238.60407214 279.39481887 -242.8410385 284.68241255 -246.9765625 290.05859375 C-249.88889802 293.35413131 -252.62062511 295.70289226 -256.8203125 297.07421875 C-259.7578125 297.07421875 -259.7578125 297.07421875 -262.0078125 295.44921875 C-267.29124385 288.27884764 -266.37297554 280.05703939 -265.328125 271.59375 C-260.67919168 245.27849164 -248.13395756 219.71800724 -232.7578125 198.07421875 C-232.3649707 197.51460449 -231.97212891 196.95499023 -231.56738281 196.37841797 C-226.84248649 189.69387795 -221.65474092 183.56794008 -216.078125 177.58203125 C-214.15105718 175.49924078 -212.32241231 173.37856224 -210.5078125 171.19921875 C-206.16616547 166.19755888 -201.23024281 161.79138142 -196.35546875 157.3203125 C-195.48112183 156.51460815 -195.48112183 156.51460815 -194.58911133 155.69262695 C-193.35881723 154.60535597 -192.09108429 153.55916645 -190.79174805 152.55541992 C-184.49578733 147.5693724 -181.14424499 141.5563377 -177.4453125 134.51171875 C-176.83880859 133.42052734 -176.23230469 132.32933594 -175.60742188 131.20507812 C-169.92983217 120.58067759 -166.85782772 109.83408383 -168.0703125 97.76171875 C-168.19091421 96.13696857 -168.30802947 94.5119563 -168.421875 92.88671875 C-168.48149414 92.08492188 -168.54111328 91.283125 -168.60253906 90.45703125 C-170.24780297 65.20895624 -165.3121169 38.04660494 -148.59765625 18.1484375 C-147.68693359 17.12169922 -147.68693359 17.12169922 -146.7578125 16.07421875 C-146.05785156 15.25566406 -145.35789062 14.43710937 -144.63671875 13.59375 C-108.61136601 -27.67619482 -43.15200395 -34.26908237 0 0 Z " fill="#FDFDFD" transform="translate(265.7578125,21.92578125)"/>
<path d="M0 0 C21.65607731 17.79390134 33.76914191 40.74054513 36.9921875 68.51171875 C37.4809795 75.29661719 37.48092609 82.01023102 36.75390625 88.7734375 C34.94862745 106.22554816 34.95791725 122.70344132 46.2421875 137.07421875 C47.00660156 138.05132812 47.77101563 139.0284375 48.55859375 140.03515625 C52.31248926 145.23358027 52.31248926 145.23358027 57.2421875 149.07421875 C57.2421875 149.73421875 57.2421875 150.39421875 57.2421875 151.07421875 C57.9021875 151.07421875 58.5621875 151.07421875 59.2421875 151.07421875 C60.97162633 152.69884311 62.60138663 154.36225061 64.2421875 156.07421875 C65.73946765 157.57693368 67.23968959 159.07672083 68.7421875 160.57421875 C71.90885417 163.74088542 75.07552083 166.90755208 78.2421875 170.07421875 C78.80035156 170.59757813 79.35851562 171.1209375 79.93359375 171.66015625 C86.44075378 177.89125495 91.83411647 184.89651094 97.2421875 192.07421875 C97.67853516 192.64978516 98.11488281 193.22535156 98.56445312 193.81835938 C113.50155345 213.65138332 124.71771716 236.11853849 131.2421875 260.07421875 C131.5825 261.30914062 131.9228125 262.5440625 132.2734375 263.81640625 C134.50895335 272.94476265 136.48125799 284.46999553 132.90625 293.41796875 C131.2421875 296.07421875 131.2421875 296.07421875 128.2421875 298.07421875 C121.81639199 297.53363595 117.96353794 293.28530939 113.95068359 288.55029297 C111.09026984 285.02509883 108.33462838 281.42021958 105.57958984 277.8125 C98.91175264 269.14601572 91.89803946 260.47609463 83.98046875 252.9140625 C82.2421875 251.07421875 82.2421875 251.07421875 82.2421875 249.07421875 C81.3759375 248.67203125 81.3759375 248.67203125 80.4921875 248.26171875 C78.20806702 247.05621072 76.28787219 245.64286352 74.2421875 244.07421875 C74.31147461 244.61771973 74.38076172 245.1612207 74.45214844 245.72119141 C75.35859024 253.62271877 75.48533386 261.50236364 75.4921875 269.44921875 C75.49286224 270.15597748 75.49353699 270.86273621 75.49423218 271.59091187 C75.47652781 283.31170058 74.74412626 294.60058101 72.2421875 306.07421875 C72.08121582 306.84411133 71.92024414 307.61400391 71.75439453 308.40722656 C64.99678624 339.81290276 48.44131645 364.86647747 26.1796875 387.38671875 C25.42856689 388.14742676 24.67744629 388.90813477 23.90356445 389.69189453 C23.1993335 390.39169434 22.49510254 391.09149414 21.76953125 391.8125 C21.13781006 392.44196533 20.50608887 393.07143066 19.85522461 393.7199707 C18.2421875 395.07421875 18.2421875 395.07421875 16.2421875 395.07421875 C16.2421875 395.73421875 16.2421875 396.39421875 16.2421875 397.07421875 C17.4384375 397.25984375 18.6346875 397.44546875 19.8671875 397.63671875 C31.91021654 400.36773636 43.83536501 407.36404139 50.984375 417.55859375 C52.29011781 420.17007938 52.674712 421.80348043 52.6796875 424.69921875 C52.69902344 425.45460938 52.71835937 426.21 52.73828125 426.98828125 C52.2421875 429.07421875 52.2421875 429.07421875 50.50732422 430.69287109 C47.87137219 432.30035294 46.5565581 432.39219719 43.50390625 432.26171875 C42.14942383 432.22691406 42.14942383 432.22691406 40.76757812 432.19140625 C38.88734978 432.11376434 37.00714107 432.03564538 35.12695312 431.95703125 C26.24467625 431.72976617 21.1585612 433.93977429 14.4296875 439.76953125 C10.37900829 442.18547206 6.60514158 442.40906796 2.078125 441.296875 C0.93601562 440.91402344 -0.20609375 440.53117187 -1.3828125 440.13671875 C-10.7226017 437.34626391 -20.15780638 437.80287054 -29.81689453 438.04711914 C-31.02845215 438.07410889 -32.24000977 438.10109863 -33.48828125 438.12890625 C-34.57520264 438.16483887 -35.66212402 438.20077148 -36.78198242 438.23779297 C-41.26460417 437.99139404 -43.87794068 436.97853146 -47.0078125 433.76171875 C-49.7869501 429.49375744 -49.94644476 427.24373877 -49.1328125 422.19921875 C-47.9134531 417.74516983 -45.60463212 414.67020143 -42.7578125 411.07421875 C-43.55960938 411.21859375 -44.36140625 411.36296875 -45.1875 411.51171875 C-59.8906455 413.9122323 -74.09542556 413.71439132 -88.7578125 411.07421875 C-88.12359375 411.8528125 -87.489375 412.63140625 -86.8359375 413.43359375 C-83.09008881 418.19335637 -82.53311212 421.98724845 -82.4921875 427.890625 C-82.80962555 430.5001525 -83.2250787 431.9204635 -84.7578125 434.07421875 C-90.274204 438.13225387 -96.18095327 437.29433777 -102.6953125 437.07421875 C-114.47301593 436.86432922 -124.74224505 437.64547272 -135.7578125 442.07421875 C-141.1306986 442.7601191 -143.48437275 441.23656417 -147.7578125 438.07421875 C-149.1451035 437.16521284 -150.54130133 436.26968007 -151.9453125 435.38671875 C-152.59886719 434.97035156 -153.25242187 434.55398438 -153.92578125 434.125 C-157.12788619 432.28839823 -159.64579967 431.97107626 -163.25 432.08203125 C-164.12011719 432.09878906 -164.99023438 432.11554688 -165.88671875 432.1328125 C-167.70984633 432.17689951 -169.53280027 432.22891706 -171.35546875 432.2890625 C-180.10179646 432.43117418 -180.10179646 432.43117418 -183.7578125 429.07421875 C-184.8394916 426.01046846 -184.46324912 423.21290054 -183.7578125 420.07421875 C-182.20280465 416.95251125 -180.15396862 414.59068397 -177.7578125 412.07421875 C-177.16226563 411.42710937 -176.56671875 410.78 -175.953125 410.11328125 C-169.03737873 403.30517305 -160.35925585 399.34037664 -151.7578125 395.07421875 C-152.47066406 394.50574219 -153.18351562 393.93726563 -153.91796875 393.3515625 C-184.55927471 368.64881382 -200.94747895 331.74190001 -205.7578125 293.07421875 C-205.85352539 292.30899902 -205.94923828 291.5437793 -206.04785156 290.75537109 C-206.79446389 284.14534567 -206.91152131 277.59684567 -206.8828125 270.94921875 C-206.88087891 269.86133057 -206.87894531 268.77344238 -206.87695312 267.65258789 C-206.83137948 259.09423692 -206.46959736 250.60292666 -205.7578125 242.07421875 C-206.19351563 242.59371094 -206.62921875 243.11320312 -207.078125 243.6484375 C-210.2338272 247.34375112 -213.3153572 250.53762056 -217.12109375 253.57421875 C-220.62313017 256.7837223 -223.44356361 260.6500443 -226.390625 264.36132812 C-229.00807371 267.64061744 -231.66917244 270.88465869 -234.3203125 274.13671875 C-238.60407214 279.39481887 -242.8410385 284.68241255 -246.9765625 290.05859375 C-249.88889802 293.35413131 -252.62062511 295.70289226 -256.8203125 297.07421875 C-259.7578125 297.07421875 -259.7578125 297.07421875 -262.0078125 295.44921875 C-267.29124385 288.27884764 -266.37297554 280.05703939 -265.328125 271.59375 C-260.67919168 245.27849164 -248.13395756 219.71800724 -232.7578125 198.07421875 C-232.3649707 197.51460449 -231.97212891 196.95499023 -231.56738281 196.37841797 C-226.84248649 189.69387795 -221.65474092 183.56794008 -216.078125 177.58203125 C-214.15105718 175.49924078 -212.32241231 173.37856224 -210.5078125 171.19921875 C-206.16616547 166.19755888 -201.23024281 161.79138142 -196.35546875 157.3203125 C-195.48112183 156.51460815 -195.48112183 156.51460815 -194.58911133 155.69262695 C-193.35881723 154.60535597 -192.09108429 153.55916645 -190.79174805 152.55541992 C-184.49578733 147.5693724 -181.14424499 141.5563377 -177.4453125 134.51171875 C-176.83880859 133.42052734 -176.23230469 132.32933594 -175.60742188 131.20507812 C-169.92983217 120.58067759 -166.85782772 109.83408383 -168.0703125 97.76171875 C-168.19091421 96.13696857 -168.30802947 94.5119563 -168.421875 92.88671875 C-168.48149414 92.08492188 -168.54111328 91.283125 -168.60253906 90.45703125 C-170.24780297 65.20895624 -165.3121169 38.04660494 -148.59765625 18.1484375 C-147.68693359 17.12169922 -147.68693359 17.12169922 -146.7578125 16.07421875 C-146.05785156 15.25566406 -145.35789062 14.43710937 -144.63671875 13.59375 C-108.61136601 -27.67619482 -43.15200395 -34.26908237 0 0 Z M-134.16015625 45.921875 C-141.71800371 56.1037184 -143.96662664 66.97175555 -144.8203125 79.32421875 C-144.97452183 81.47550264 -145.1319262 83.62656059 -145.29296875 85.77734375 C-145.3587915 86.72254883 -145.42461426 87.66775391 -145.49243164 88.64160156 C-145.7578125 91.07421875 -145.7578125 91.07421875 -146.7578125 94.07421875 C-148.34074701 105.38089385 -143.70959929 117.18391903 -137.1796875 126.23828125 C-135.9426945 127.83549748 -134.69493325 129.42436266 -133.4453125 131.01171875 C-131.03740825 135.38161906 -130.42862149 139.09091946 -130.7578125 144.07421875 C-132.23696916 148.74491064 -134.36954342 153.01766426 -136.5703125 157.38671875 C-137.17529435 158.63280811 -137.77788613 159.88006048 -138.37817383 161.12841797 C-140.14565352 164.7900383 -141.94955045 168.43256566 -143.7578125 172.07421875 C-162.91476799 210.96608534 -178.88960188 253.5601653 -178.99804688 297.38549805 C-179.00772236 299.73978434 -179.03882306 302.09318405 -179.0703125 304.44726562 C-179.26025101 331.54362027 -169.71066816 353.95744222 -150.8125 373.3828125 C-144.12698341 378.88628909 -137.69863829 378.49585028 -129.3828125 378.57421875 C-111.16910444 379.02961969 -97.14368248 382.22670667 -80.7578125 390.07421875 C-71.21088927 394.6030483 -62.85379251 395.63156395 -52.66796875 392.2578125 C-48.13278285 390.41330065 -43.77280702 388.21297664 -39.37548828 386.06420898 C-32.36386356 382.72124126 -25.3403702 380.72706692 -17.7578125 379.07421875 C-16.98824219 378.89713379 -16.21867188 378.72004883 -15.42578125 378.53759766 C-12.53149647 378.03491167 -9.83524489 377.96428033 -6.8984375 377.96875 C-5.22394531 377.94651367 -5.22394531 377.94651367 -3.515625 377.92382812 C-1.19283247 377.89925515 1.13024725 377.89378345 3.453125 377.90820312 C12.32358804 377.73997021 17.48622441 375.69098648 23.83544922 369.52758789 C25.25779185 367.97551619 26.54004614 366.38183066 27.8046875 364.69921875 C28.26375488 364.0969043 28.72282227 363.49458984 29.19580078 362.87402344 C42.0220244 345.47753623 47.47031822 325.23273919 47.4296875 303.82421875 C47.42841858 303.14450012 47.42714966 302.46478149 47.42584229 301.76446533 C47.38886372 291.39671333 47.13297087 281.29659353 45.2421875 271.07421875 C44.97559326 269.61193848 44.97559326 269.61193848 44.70361328 268.12011719 C37.36172693 228.97507156 22.94177948 192.85501064 4.94238281 157.51049805 C-2.33353615 143.16497519 -2.33353615 143.16497519 -0.7578125 136.07421875 C0.69742217 133.30045327 2.39433218 130.78739091 4.15234375 128.1953125 C12.78867622 115.29731317 15.4959589 105.55621584 14.2421875 90.07421875 C14.12970567 88.2682604 14.0177367 86.46227005 13.90625 84.65625 C12.84048231 69.53583956 10.58758775 53.63981993 -1.0078125 42.69921875 C-9.08220322 36.49357348 -17.72771134 34.85103568 -27.7578125 36.07421875 C-34.86593236 37.87812816 -39.68228979 43.21347775 -43.7578125 49.07421875 C-47.12867256 55.42378435 -49.57617025 61.83274779 -49.7578125 69.07421875 C-49.80808594 70.27820313 -49.85835937 71.4821875 -49.91015625 72.72265625 C-50.46085386 81.46327119 -50.46085386 81.46327119 -46.7578125 89.07421875 C-44.14380243 90.69618819 -44.14380243 90.69618819 -41.1953125 91.82421875 C-40.22464844 92.2315625 -39.25398437 92.63890625 -38.25390625 93.05859375 C-37.43019531 93.39375 -36.60648438 93.72890625 -35.7578125 94.07421875 C-35.0978125 94.40421875 -34.4378125 94.73421875 -33.7578125 95.07421875 C-33.484375 97.328125 -33.484375 97.328125 -33.7578125 100.07421875 C-35.59375 102.0390625 -35.59375 102.0390625 -38.1328125 104.01171875 C-42.55754559 107.7312405 -45.65031383 111.50390991 -48.8203125 116.26171875 C-53.45408964 123.08238505 -57.94220652 127.95631022 -66.2578125 129.88671875 C-73.25029544 128.26346378 -78.74720189 122.88268929 -82.7578125 117.07421875 C-83.18191406 116.39359375 -83.60601562 115.71296875 -84.04296875 115.01171875 C-87.85053228 109.00084512 -92.25025499 103.3279975 -98.7578125 100.07421875 C-98.66015625 97.80078125 -98.66015625 97.80078125 -97.7578125 95.07421875 C-94.88671875 93.16015625 -94.88671875 93.16015625 -91.3203125 91.44921875 C-86.29013579 89.14334317 -86.29013579 89.14334317 -82.7578125 85.07421875 C-82.32316156 81.7357132 -82.43367323 78.37546777 -82.4453125 75.01171875 C-82.42919922 74.10744141 -82.41308594 73.20316406 -82.39648438 72.27148438 C-82.38905421 61.87669037 -85.19774662 52.27430111 -91.7578125 44.07421875 C-94.58078518 41.70213754 -97.51530314 39.81927834 -100.7578125 38.07421875 C-101.37140625 37.70167969 -101.985 37.32914063 -102.6171875 36.9453125 C-113.93874559 32.33818211 -126.33283688 37.46540939 -134.16015625 45.921875 Z " fill="#050505" transform="translate(265.7578125,21.92578125)"/>
<path d="M0 0 C4.65168344 1.66758463 7.59078764 3.64488535 10 8 C10.67198647 12.58309872 10.58833828 16.57560206 8.8125 20.875 C5.58767564 24.65582856 2.98287647 27.06798046 -2 27.875 C-5.53066319 28.13996534 -7.89380826 27.84692482 -11 26 C-14.63813676 22.77528787 -16.63189979 20.66523188 -17.30859375 15.765625 C-17.56141389 10.83180173 -17.40485038 7.79192271 -14.125 3.9375 C-9.80954689 -0.49261491 -5.98969234 -0.55553639 0 0 Z " fill="#060606" transform="translate(245,84)"/>
<path d="M0 0 C4.15262537 2.43022962 7.24974995 5.47496328 9 10 C9.32251079 15.91269776 7.87358665 20.46236992 4 25 C-0.63912628 27.91832239 -5.70551923 27.7508815 -11 27 C-14.44800614 25.35420614 -16.42185198 22.97233985 -18.375 19.6875 C-19.62246021 14.32342111 -19.78161092 10.5932838 -17.375 5.6875 C-12.67124067 0.36482497 -6.93812969 -1.50567051 0 0 Z " fill="#070707" transform="translate(163,84)"/>
<path d="M0 0 C-0.33 1.65 -0.66 3.3 -1 5 C-2.65 4.67 -4.3 4.34 -6 4 C-6 2.68 -6 1.36 -6 0 C-3.50907189 -1.24546405 -2.58919267 -0.7767578 0 0 Z " fill="#D0D0D0" transform="translate(251,89)"/>
<path d="M0 0 C0.33 0.99 0.66 1.98 1 3 C-1.97 5.97 -4.94 8.94 -8 12 C-8.66 11.67 -9.32 11.34 -10 11 C-6.7 7.37 -3.4 3.74 0 0 Z " fill="#565656" transform="translate(58,190)"/>
<path d="M0 0 C0.66 0.33 1.32 0.66 2 1 C-3.94 6.445 -3.94 6.445 -10 12 C-10.66 11.67 -11.32 11.34 -12 11 C-10.75323147 9.72599623 -9.5024352 8.45593346 -8.25 7.1875 C-7.55390625 6.47980469 -6.8578125 5.77210937 -6.140625 5.04296875 C-4.18571355 3.17724121 -2.19661447 1.56830358 0 0 Z " fill="#4E4E4E" transform="translate(137,20)"/>
<path d="M0 0 C1.98 0.495 1.98 0.495 4 1 C3.67 2.65 3.34 4.3 3 6 C1.68 5.67 0.36 5.34 -1 5 C-0.67 3.35 -0.34 1.7 0 0 Z " fill="#E2E2E2" transform="translate(163,88)"/>
<path d="M0 0 C1.32 0.33 2.64 0.66 4 1 C4 1.99 4 2.98 4 4 C2.46875 5.38671875 2.46875 5.38671875 0.5 6.6875 C-0.47453125 7.34298828 -0.47453125 7.34298828 -1.46875 8.01171875 C-1.9740625 8.33785156 -2.479375 8.66398437 -3 9 C-1.92598892 6.08482708 -1.22189824 4.22189824 1 2 C0.67 1.34 0.34 0.68 0 0 Z " fill="#4E4E4E" transform="translate(222,431)"/>
</svg>
